<?xml version="1.0" standalone="no"?>
<!DOCTYPE svg PUBLIC "-//W3C//DTD SVG 20010904//EN"
 "http://www.w3.org/TR/2001/REC-SVG-20010904/DTD/svg10.dtd">
<svg version="1.0" xmlns="http://www.w3.org/2000/svg"
 width="180.000000pt" height="124.000000pt" viewBox="0 0 180.000000 124.000000"
 preserveAspectRatio="xMidYMid meet">

<g transform="translate(0.000000,124.000000) scale(0.100000,-0.100000)"
fill="#000000" stroke="none">
<path d="M921 1221 c-28 -28 -27 -56 4 -86 35 -36 73 -32 88 8 5 12 1 17 -13
17 -12 0 -17 -5 -14 -14 8 -20 -12 -29 -36 -16 -23 12 -28 68 -8 88 17 17 45
15 56 -4 7 -12 11 -13 17 -5 10 16 4 21 -38 28 -27 4 -39 1 -56 -16z"/>
<path d="M1055 1214 c29 -70 29 -75 17 -94 -7 -11 -8 -20 -3 -20 5 0 16 -3 24
-6 11 -4 13 1 10 20 -4 18 3 37 21 61 15 19 23 35 19 35 -5 0 -14 -9 -21 -20
-16 -26 -32 -26 -32 0 0 10 -10 24 -22 31 -19 10 -20 9 -13 -7z"/>
<path d="M1174 1172 c-1 -16 -8 -43 -16 -60 -14 -27 -14 -31 -1 -36 10 -4 14
-2 11 6 -3 7 1 26 8 43 l12 30 7 -48 7 -49 34 33 34 33 -9 -32 c-5 -17 -12
-36 -15 -41 -3 -5 1 -12 10 -15 22 -8 26 -8 19 3 -3 6 3 32 14 60 23 61 10 72
-35 29 l-32 -30 -7 44 c-7 38 -18 57 -35 58 -3 0 -5 -13 -6 -28z"/>
<path d="M622 1155 c0 -16 2 -22 5 -12 2 9 2 23 0 30 -3 6 -5 -1 -5 -18z"/>
<path d="M725 1170 c-3 -5 -1 -10 4 -10 6 0 11 5 11 10 0 6 -2 10 -4 10 -3 0
-8 -4 -11 -10z"/>
<path d="M692 1150 c0 -14 2 -19 5 -12 2 6 2 18 0 25 -3 6 -5 1 -5 -13z"/>
<path d="M846 1143 c-6 -14 -5 -15 5 -6 7 7 10 15 7 18 -3 3 -9 -2 -12 -12z"/>
<path d="M507 1134 c-3 -3 4 -21 15 -40 22 -38 17 -41 -36 -19 -26 11 -42 13
-54 6 -9 -6 -12 -11 -5 -11 6 0 22 -22 36 -50 13 -27 27 -47 30 -44 3 3 -3 20
-14 37 -10 18 -19 35 -19 39 0 4 23 -1 51 -13 29 -11 54 -18 56 -15 2 2 -7 26
-21 54 -14 27 -22 52 -19 56 4 3 2 6 -4 6 -5 0 -12 -3 -16 -6z"/>
<path d="M1345 1098 c2 -13 7 -47 11 -76 4 -29 10 -55 15 -57 9 -6 70 91 62
99 -4 3 -11 6 -16 6 -6 0 -8 -3 -4 -6 3 -4 -1 -21 -10 -38 l-17 -31 -10 59
c-6 33 -16 61 -23 63 -7 3 -10 -5 -8 -19z"/>
<path d="M726 1085 c4 -8 8 -15 10 -15 2 0 4 7 4 15 0 8 -4 15 -10 15 -5 0 -7
-7 -4 -15z"/>
<path d="M690 1071 c0 -6 4 -13 10 -16 6 -3 7 1 4 9 -7 18 -14 21 -14 7z"/>
<path d="M1319 1056 c-7 -14 -16 -26 -21 -26 -14 0 -9 -18 8 -24 8 -3 12 -2 9
4 -3 5 2 21 11 35 9 14 14 28 11 32 -4 3 -12 -6 -18 -21z"/>
<path d="M356 984 c23 -92 30 -106 43 -90 9 11 10 16 2 16 -16 0 -14 25 3 39
11 10 16 9 23 -4 8 -14 12 -13 29 7 10 13 15 20 10 16 -5 -5 -28 3 -52 17 -54
32 -66 32 -58 -1z m44 -24 c0 -5 -4 -12 -10 -15 -5 -3 -10 -4 -10 -1 0 2 -3
12 -6 20 -5 12 -2 15 10 10 9 -3 16 -10 16 -14z"/>
<path d="M1460 965 c-25 -13 -48 -21 -52 -18 -5 2 -8 0 -8 -6 0 -5 5 -13 10
-16 6 -3 10 -1 10 4 0 16 26 13 40 -4 9 -11 9 -19 2 -28 -7 -8 -7 -17 2 -29
10 -14 15 -8 30 43 9 33 16 64 14 68 -2 5 -23 -1 -48 -14z m20 -20 c0 -8 -4
-15 -9 -15 -13 0 -22 16 -14 24 11 11 23 6 23 -9z"/>
<path d="M278 934 c-14 -15 -13 -19 24 -52 26 -23 37 -41 33 -51 -4 -10 2 -8
14 6 21 22 28 39 13 29 -13 -8 -75 60 -68 73 10 16 3 13 -16 -5z"/>
<path d="M730 879 c-44 -13 -83 -17 -121 -14 -59 6 -159 -11 -159 -26 0 -5 7
-9 15 -9 11 0 7 -11 -14 -42 -16 -24 -27 -46 -25 -50 11 -17 63 -8 74 12 6 11
18 20 28 20 9 0 31 7 47 16 19 10 43 14 64 10 23 -3 46 1 73 15 27 14 43 17
52 10 14 -12 76 41 76 65 0 18 -27 16 -110 -7z"/>
<path d="M1545 890 c-4 -6 -4 -29 0 -50 7 -42 -3 -52 -25 -25 -7 8 -10 22 -6
30 6 17 -9 21 -19 5 -11 -18 24 -60 49 -60 28 0 40 24 25 52 -6 11 -8 26 -5
35 5 13 9 13 22 3 8 -7 13 -19 10 -27 -3 -7 -1 -13 4 -13 14 0 12 34 -2 48
-15 15 -45 16 -53 2z"/>
<path d="M228 859 c-19 -11 -61 -79 -48 -79 5 0 25 -15 44 -34 l36 -34 20 28
c20 28 26 75 12 96 -13 21 -47 33 -64 23z m47 -39 c12 -13 15 -27 11 -45 -8
-33 -26 -32 -61 5 -23 24 -26 32 -15 45 17 21 43 19 65 -5z"/>
<path d="M1296 852 c-9 -15 0 -103 12 -111 6 -3 14 -27 18 -51 3 -25 12 -54
19 -65 30 -51 26 -61 -50 -126 -41 -34 -75 -70 -78 -79 -4 -15 -61 -37 -141
-55 -42 -9 -20 -25 41 -31 38 -3 52 -1 56 10 3 8 25 17 49 21 24 4 54 13 68
20 14 7 47 15 73 19 68 8 137 40 137 63 0 10 4 23 8 30 4 6 7 -28 6 -75 l-1
-87 -57 -3 c-54 -3 -56 -2 -56 21 0 14 -6 27 -14 30 -17 7 -36 -11 -36 -35 0
-15 -12 -18 -92 -20 l-93 -3 0 -59 0 -59 65 -18 c81 -23 232 -24 390 -4 196
25 180 18 180 75 0 28 -5 52 -12 57 -7 4 -65 10 -128 13 l-115 5 2 32 c2 17
-1 34 -6 37 -4 3 1 46 11 97 11 50 17 97 14 105 -3 8 -17 14 -31 14 -23 0 -25
3 -19 23 11 36 10 49 -7 60 -29 18 -49 1 -49 -42 0 -30 -4 -40 -19 -44 -16 -4
-27 10 -61 82 -23 47 -44 98 -47 113 -6 30 -28 54 -37 40z m94 -364 c0 -5 -8
-8 -18 -8 -10 0 -22 -4 -27 -8 -16 -13 -71 -35 -60 -23 6 5 28 23 50 39 37 27
54 27 55 0z m-135 -58 c-3 -5 -11 -10 -16 -10 -6 0 -7 5 -4 10 3 6 11 10 16
10 6 0 7 -4 4 -10z m135 -80 c0 -11 -4 -20 -10 -20 -5 0 -10 9 -10 20 0 11 5
20 10 20 6 0 10 -9 10 -20z m280 -72 c0 -13 -4 -29 -8 -36 -5 -8 -8 1 -8 23 1
19 4 35 9 35 4 0 7 -10 7 -22z m27 -35 c-3 -10 -5 -4 -5 12 0 17 2 24 5 18 2
-7 2 -21 0 -30z m28 7 c1 -11 -2 -20 -7 -20 -4 0 -8 12 -8 27 0 30 13 24 15
-7z m29 -5 c3 -8 1 -15 -4 -15 -6 0 -10 7 -10 15 0 8 2 15 4 15 2 0 6 -7 10
-15z"/>
<path d="M1626 811 c-3 -5 1 -12 10 -15 14 -5 14 -9 3 -22 -17 -20 -65 -45
-73 -37 -12 12 -6 -13 7 -31 12 -17 14 -17 20 -3 7 19 64 50 77 42 5 -3 6 -13
3 -23 -5 -13 -3 -14 7 -5 9 9 6 21 -15 57 -29 49 -31 51 -39 37z"/>
<path d="M856 753 c-10 -11 -7 -23 6 -20 16 3 23 -34 8 -43 -8 -5 -5 -13 12
-27 12 -10 28 -28 34 -38 17 -31 44 -31 44 -1 0 14 -5 28 -10 31 -6 4 -8 15
-5 25 4 13 -4 25 -27 43 -45 33 -54 37 -62 30z"/>
<path d="M143 727 c-7 -15 -9 -26 -5 -26 19 3 32 -3 60 -29 l30 -29 11 24 c6
14 7 22 1 18 -12 -8 -79 36 -82 54 -2 9 -8 4 -15 -12z"/>
<path d="M396 684 c-13 -33 -21 -42 -27 -32 -12 18 -11 5 1 -26 5 -14 16 -26
25 -26 15 0 20 -26 16 -82 -1 -15 7 -49 19 -74 14 -33 17 -51 10 -58 -18 -18
-12 -114 9 -135 10 -10 21 -25 24 -32 4 -10 6 -10 6 3 1 9 5 18 10 20 13 4 17
134 4 150 -26 34 -46 177 -23 163 6 -4 9 4 7 17 -2 20 2 23 26 20 20 -2 30 3
37 20 6 13 16 31 22 41 11 16 9 21 -11 38 -25 20 -76 26 -86 9 -4 -7 -14 -3
-25 10 -9 11 -19 20 -21 20 -2 0 -12 -21 -23 -46z"/>
<path d="M1701 695 c-1 -13 -71 -51 -87 -47 -10 2 -10 -3 -1 -22 7 -14 14 -21
15 -15 5 13 78 50 86 42 8 -9 6 8 -4 32 -5 11 -9 15 -9 10z"/>
<path d="M87 610 c-13 -35 -13 -40 -1 -40 19 0 77 -29 86 -44 6 -8 8 -8 8 1 0
6 2 18 5 25 3 9 -2 14 -14 15 -27 2 -73 33 -68 46 6 20 28 19 34 -2 3 -12 10
-21 17 -21 27 0 56 13 56 25 0 10 -8 11 -30 5 -24 -7 -30 -5 -35 11 -11 33
-41 22 -58 -21z"/>
<path d="M1670 590 c-11 -11 -20 -29 -20 -40 0 -26 21 -70 34 -70 6 0 5 5 -2
12 -22 22 -14 66 14 85 26 16 27 16 46 -6 11 -15 16 -31 12 -44 -4 -13 -2 -17
5 -13 17 11 13 41 -10 70 -24 31 -52 33 -79 6z"/>
<path d="M51 503 c-13 -47 -14 -56 -1 -48 5 3 30 -3 54 -13 l44 -20 6 30 c8
42 8 58 -3 58 -4 0 -6 -11 -3 -25 3 -20 0 -25 -15 -25 -27 0 -34 9 -23 30 7
13 6 20 -4 23 -9 4 -12 0 -9 -13 6 -22 -8 -32 -27 -20 -12 8 -13 13 -2 30 14
24 15 30 2 30 -5 0 -14 -17 -19 -37z"/>
<path d="M923 528 c-6 -7 -16 -38 -24 -68 -7 -30 -16 -60 -21 -66 -11 -15 -21
-134 -11 -134 4 0 19 -3 33 -6 l25 -6 -24 20 -24 19 18 54 c24 73 35 86 52 63
7 -10 13 -26 13 -36 0 -10 8 -31 18 -46 10 -15 23 -36 28 -47 6 -11 18 -21 27
-23 12 -3 9 9 -13 50 -15 29 -35 91 -45 138 -9 46 -19 88 -21 92 -7 12 -20 10
-31 -4z"/>
<path d="M1744 468 c-5 -7 -8 -24 -8 -38 -1 -15 -7 -25 -16 -25 -10 0 -15 10
-15 28 1 15 -2 27 -7 27 -15 0 -16 -16 -2 -48 11 -26 19 -33 36 -30 19 2 24
10 26 41 2 25 8 37 19 37 11 0 14 -7 11 -25 -3 -14 -1 -25 3 -25 5 0 9 10 9
23 0 39 -39 63 -56 35z"/>
<path d="M20 396 c0 -9 16 -28 35 -43 l34 -27 -42 -16 c-54 -20 -60 -44 -11
-48 19 -1 44 -7 55 -12 15 -8 19 -7 19 5 0 8 -3 14 -7 14 -5 -1 -20 -1 -35 0
-42 2 -34 18 12 26 22 4 40 9 40 12 0 3 -17 21 -37 39 l-38 33 32 -9 c18 -4
36 -11 42 -14 5 -3 11 4 13 17 4 19 0 22 -26 22 -17 0 -43 4 -58 8 -21 6 -28
4 -28 -7z"/>
<path d="M522 133 c219 -2 577 -2 795 0 219 1 40 2 -397 2 -437 0 -616 -1
-398 -2z"/>
<path d="M311 55 c0 -5 6 -19 14 -29 8 -11 15 -15 15 -10 0 6 -7 19 -15 30 -8
10 -14 15 -14 9z"/>
<path d="M352 30 c0 -19 2 -27 5 -17 2 9 2 25 0 35 -3 9 -5 1 -5 -18z"/>
<path d="M830 42 c0 -10 -5 -23 -10 -28 -7 -7 -6 -11 5 -11 10 0 15 10 15 29
0 15 -2 28 -5 28 -3 0 -5 -8 -5 -18z"/>
<path d="M922 40 c0 -14 2 -19 5 -12 2 6 2 18 0 25 -3 6 -5 1 -5 -13z"/>
<path d="M1071 33 c7 -12 15 -20 18 -17 3 2 -3 12 -13 22 -17 16 -18 16 -5 -5z"/>
<path d="M1416 37 c3 -10 9 -15 12 -12 3 3 0 11 -7 18 -10 9 -11 8 -5 -6z"/>
<path d="M1526 37 c3 -10 9 -15 12 -12 3 3 0 11 -7 18 -10 9 -11 8 -5 -6z"/>
<path d="M431 24 c0 -11 3 -14 6 -6 3 7 2 16 -1 19 -3 4 -6 -2 -5 -13z"/>
<path d="M482 20 c0 -14 2 -19 5 -12 2 6 2 18 0 25 -3 6 -5 1 -5 -13z"/>
<path d="M572 20 c0 -14 2 -19 5 -12 2 6 2 18 0 25 -3 6 -5 1 -5 -13z"/>
<path d="M632 20 c0 -14 2 -19 5 -12 2 6 2 18 0 25 -3 6 -5 1 -5 -13z"/>
<path d="M882 20 c0 -14 2 -19 5 -12 2 6 2 18 0 25 -3 6 -5 1 -5 -13z"/>
<path d="M942 20 c0 -14 2 -19 5 -12 2 6 2 18 0 25 -3 6 -5 1 -5 -13z"/>
<path d="M861 14 c0 -11 3 -14 6 -6 3 7 2 16 -1 19 -3 4 -6 -2 -5 -13z"/>
<path d="M1451 14 c0 -11 3 -14 6 -6 3 7 2 16 -1 19 -3 4 -6 -2 -5 -13z"/>
<path d="M970 10 c0 -5 5 -10 11 -10 5 0 7 5 4 10 -3 6 -8 10 -11 10 -2 0 -4
-4 -4 -10z"/>
</g>
</svg>
